<mxfile host="Electron" modified="2024-02-05T22:01:53.634Z" agent="Mozilla/5.0 (X11; Linux x86_64) AppleWebKit/537.36 (KHTML, like Gecko) draw.io/23.0.2 Chrome/120.0.6099.109 Electron/28.1.0 Safari/537.36" etag="A5zF89AfAmWYStptSVgp" version="23.0.2" type="device" pages="2">
  <diagram id="0-DA5b68TWQ2MSmN0u3f" name="Page-2">
    <mxGraphModel dx="1185" dy="685" grid="1" gridSize="10" guides="1" tooltips="1" connect="1" arrows="1" fold="1" page="1" pageScale="1" pageWidth="827" pageHeight="1169" math="0" shadow="0">
      <root>
        <mxCell id="0" />
        <mxCell id="1" parent="0" />
        <mxCell id="-9MLxV5tjwEzQLKtOrl2-2" value="Input Files" style="shape=cylinder3;whiteSpace=wrap;html=1;boundedLbl=1;backgroundOutline=1;size=5.571428571428605;" vertex="1" parent="1">
          <mxGeometry x="365" y="50" width="100" height="50" as="geometry" />
        </mxCell>
        <mxCell id="-9MLxV5tjwEzQLKtOrl2-4" value="Main script" style="rounded=0;whiteSpace=wrap;html=1;" vertex="1" parent="1">
          <mxGeometry x="25" y="50" width="120" height="50" as="geometry" />
        </mxCell>
        <mxCell id="-9MLxV5tjwEzQLKtOrl2-5" value="SlurmD" style="rounded=0;whiteSpace=wrap;html=1;" vertex="1" parent="1">
          <mxGeometry x="195" y="50" width="120" height="50" as="geometry" />
        </mxCell>
        <mxCell id="-9MLxV5tjwEzQLKtOrl2-6" value="Srun Job1" style="rounded=0;whiteSpace=wrap;html=1;" vertex="1" parent="1">
          <mxGeometry x="515" y="50" width="120" height="50" as="geometry" />
        </mxCell>
        <mxCell id="-9MLxV5tjwEzQLKtOrl2-7" value="Srun Job2" style="rounded=0;whiteSpace=wrap;html=1;" vertex="1" parent="1">
          <mxGeometry x="682" y="50" width="120" height="50" as="geometry" />
        </mxCell>
        <mxCell id="-9MLxV5tjwEzQLKtOrl2-8" value="" style="endArrow=none;html=1;rounded=0;entryX=0.5;entryY=1;entryDx=0;entryDy=0;" edge="1" parent="1" source="-9MLxV5tjwEzQLKtOrl2-14" target="-9MLxV5tjwEzQLKtOrl2-4">
          <mxGeometry width="50" height="50" relative="1" as="geometry">
            <mxPoint x="85" y="430" as="sourcePoint" />
            <mxPoint x="130" y="150" as="targetPoint" />
          </mxGeometry>
        </mxCell>
        <mxCell id="-9MLxV5tjwEzQLKtOrl2-9" value="" style="endArrow=none;html=1;rounded=0;entryX=0.5;entryY=1;entryDx=0;entryDy=0;" edge="1" parent="1" target="-9MLxV5tjwEzQLKtOrl2-5">
          <mxGeometry width="50" height="50" relative="1" as="geometry">
            <mxPoint x="255" y="400" as="sourcePoint" />
            <mxPoint x="250" y="120" as="targetPoint" />
          </mxGeometry>
        </mxCell>
        <mxCell id="-9MLxV5tjwEzQLKtOrl2-10" value="" style="endArrow=none;html=1;rounded=0;entryX=0.5;entryY=1;entryDx=0;entryDy=0;entryPerimeter=0;" edge="1" parent="1" source="-9MLxV5tjwEzQLKtOrl2-17" target="-9MLxV5tjwEzQLKtOrl2-2">
          <mxGeometry width="50" height="50" relative="1" as="geometry">
            <mxPoint x="415" y="400" as="sourcePoint" />
            <mxPoint x="430" y="180" as="targetPoint" />
          </mxGeometry>
        </mxCell>
        <mxCell id="-9MLxV5tjwEzQLKtOrl2-11" value="" style="endArrow=none;html=1;rounded=0;entryX=0.5;entryY=1;entryDx=0;entryDy=0;" edge="1" parent="1" source="-9MLxV5tjwEzQLKtOrl2-37" target="-9MLxV5tjwEzQLKtOrl2-6">
          <mxGeometry width="50" height="50" relative="1" as="geometry">
            <mxPoint x="575" y="400" as="sourcePoint" />
            <mxPoint x="620" y="180" as="targetPoint" />
          </mxGeometry>
        </mxCell>
        <mxCell id="-9MLxV5tjwEzQLKtOrl2-12" value="" style="endArrow=none;html=1;rounded=0;entryX=0.5;entryY=1;entryDx=0;entryDy=0;" edge="1" parent="1" source="-9MLxV5tjwEzQLKtOrl2-27" target="-9MLxV5tjwEzQLKtOrl2-7">
          <mxGeometry width="50" height="50" relative="1" as="geometry">
            <mxPoint x="740" y="410" as="sourcePoint" />
            <mxPoint x="740" y="170" as="targetPoint" />
          </mxGeometry>
        </mxCell>
        <mxCell id="-9MLxV5tjwEzQLKtOrl2-15" value="" style="endArrow=none;html=1;rounded=0;entryX=0.5;entryY=1;entryDx=0;entryDy=0;" edge="1" parent="1" target="-9MLxV5tjwEzQLKtOrl2-14">
          <mxGeometry width="50" height="50" relative="1" as="geometry">
            <mxPoint x="85" y="400" as="sourcePoint" />
            <mxPoint x="85" y="100" as="targetPoint" />
          </mxGeometry>
        </mxCell>
        <mxCell id="-9MLxV5tjwEzQLKtOrl2-14" value="" style="rounded=1;whiteSpace=wrap;html=1;" vertex="1" parent="1">
          <mxGeometry x="80" y="122" width="10" height="40" as="geometry" />
        </mxCell>
        <mxCell id="-9MLxV5tjwEzQLKtOrl2-16" value="" style="rounded=1;whiteSpace=wrap;html=1;" vertex="1" parent="1">
          <mxGeometry x="250" y="110" width="10" height="280" as="geometry" />
        </mxCell>
        <mxCell id="-9MLxV5tjwEzQLKtOrl2-18" value="" style="endArrow=none;html=1;rounded=0;entryX=0.5;entryY=1;entryDx=0;entryDy=0;entryPerimeter=0;" edge="1" parent="1" target="-9MLxV5tjwEzQLKtOrl2-17">
          <mxGeometry width="50" height="50" relative="1" as="geometry">
            <mxPoint x="415" y="400" as="sourcePoint" />
            <mxPoint x="415" y="100" as="targetPoint" />
          </mxGeometry>
        </mxCell>
        <mxCell id="-9MLxV5tjwEzQLKtOrl2-17" value="" style="rounded=1;whiteSpace=wrap;html=1;" vertex="1" parent="1">
          <mxGeometry x="410" y="120" width="10" height="170" as="geometry" />
        </mxCell>
        <mxCell id="-9MLxV5tjwEzQLKtOrl2-19" value="" style="endArrow=classic;html=1;rounded=0;align=center;" edge="1" parent="1">
          <mxGeometry width="50" height="50" relative="1" as="geometry">
            <mxPoint x="90" y="126" as="sourcePoint" />
            <mxPoint x="410" y="126" as="targetPoint" />
          </mxGeometry>
        </mxCell>
        <mxCell id="-9MLxV5tjwEzQLKtOrl2-21" value="generate submission files&lt;br style=&quot;font-size: 9px;&quot;&gt;(pickled input)" style="edgeLabel;html=1;align=center;verticalAlign=middle;resizable=0;points=[];fontSize=9;" vertex="1" connectable="0" parent="-9MLxV5tjwEzQLKtOrl2-19">
          <mxGeometry x="-0.7234" y="1" relative="1" as="geometry">
            <mxPoint x="37" as="offset" />
          </mxGeometry>
        </mxCell>
        <mxCell id="-9MLxV5tjwEzQLKtOrl2-22" value="" style="endArrow=classic;html=1;rounded=0;entryX=-0.27;entryY=0.155;entryDx=0;entryDy=0;entryPerimeter=0;" edge="1" parent="1">
          <mxGeometry width="50" height="50" relative="1" as="geometry">
            <mxPoint x="90" y="159" as="sourcePoint" />
            <mxPoint x="247.30000000000007" y="158.94999999999993" as="targetPoint" />
          </mxGeometry>
        </mxCell>
        <mxCell id="-9MLxV5tjwEzQLKtOrl2-23" value="&lt;font style=&quot;font-size: 9px;&quot;&gt;sbatch&lt;br&gt;(start submission script)&lt;/font&gt;" style="edgeLabel;html=1;align=center;verticalAlign=middle;resizable=0;points=[];" vertex="1" connectable="0" parent="-9MLxV5tjwEzQLKtOrl2-22">
          <mxGeometry x="0.0088" y="1" relative="1" as="geometry">
            <mxPoint as="offset" />
          </mxGeometry>
        </mxCell>
        <mxCell id="-9MLxV5tjwEzQLKtOrl2-24" value="" style="endArrow=classic;html=1;rounded=0;" edge="1" parent="1">
          <mxGeometry width="50" height="50" relative="1" as="geometry">
            <mxPoint x="260" y="180.05" as="sourcePoint" />
            <mxPoint x="570" y="180" as="targetPoint" />
          </mxGeometry>
        </mxCell>
        <mxCell id="-9MLxV5tjwEzQLKtOrl2-25" value="&lt;font size=&quot;1&quot;&gt;srun (start job 1)&lt;br&gt;&lt;/font&gt;" style="edgeLabel;html=1;align=center;verticalAlign=middle;resizable=0;points=[];" vertex="1" connectable="0" parent="-9MLxV5tjwEzQLKtOrl2-24">
          <mxGeometry x="0.0088" y="1" relative="1" as="geometry">
            <mxPoint x="-76" y="1" as="offset" />
          </mxGeometry>
        </mxCell>
        <mxCell id="-9MLxV5tjwEzQLKtOrl2-26" value="" style="rounded=1;whiteSpace=wrap;html=1;" vertex="1" parent="1">
          <mxGeometry x="570" y="180" width="10" height="70" as="geometry" />
        </mxCell>
        <mxCell id="-9MLxV5tjwEzQLKtOrl2-27" value="" style="rounded=1;whiteSpace=wrap;html=1;" vertex="1" parent="1">
          <mxGeometry x="737" y="207" width="10" height="83" as="geometry" />
        </mxCell>
        <mxCell id="-9MLxV5tjwEzQLKtOrl2-29" value="" style="endArrow=classic;html=1;rounded=0;entryX=-0.233;entryY=0.014;entryDx=0;entryDy=0;entryPerimeter=0;" edge="1" parent="1" target="-9MLxV5tjwEzQLKtOrl2-27">
          <mxGeometry width="50" height="50" relative="1" as="geometry">
            <mxPoint x="260" y="210.05" as="sourcePoint" />
            <mxPoint x="570" y="210" as="targetPoint" />
          </mxGeometry>
        </mxCell>
        <mxCell id="-9MLxV5tjwEzQLKtOrl2-30" value="&lt;font size=&quot;1&quot;&gt;srun (start job 2)&lt;br&gt;&lt;/font&gt;" style="edgeLabel;html=1;align=center;verticalAlign=middle;resizable=0;points=[];" vertex="1" connectable="0" parent="-9MLxV5tjwEzQLKtOrl2-29">
          <mxGeometry x="0.0088" y="1" relative="1" as="geometry">
            <mxPoint x="-160" y="1" as="offset" />
          </mxGeometry>
        </mxCell>
        <mxCell id="-9MLxV5tjwEzQLKtOrl2-31" value="" style="endArrow=classic;html=1;rounded=0;exitX=0;exitY=0.714;exitDx=0;exitDy=0;exitPerimeter=0;" edge="1" parent="1" source="-9MLxV5tjwEzQLKtOrl2-26">
          <mxGeometry width="50" height="50" relative="1" as="geometry">
            <mxPoint x="480" y="290" as="sourcePoint" />
            <mxPoint x="420" y="230" as="targetPoint" />
          </mxGeometry>
        </mxCell>
        <mxCell id="-9MLxV5tjwEzQLKtOrl2-32" value="fetch input" style="edgeLabel;html=1;align=center;verticalAlign=middle;resizable=0;points=[];" vertex="1" connectable="0" parent="-9MLxV5tjwEzQLKtOrl2-31">
          <mxGeometry x="0.0138" relative="1" as="geometry">
            <mxPoint as="offset" />
          </mxGeometry>
        </mxCell>
        <mxCell id="-9MLxV5tjwEzQLKtOrl2-34" value="" style="endArrow=classic;html=1;rounded=0;exitX=-0.146;exitY=0.758;exitDx=0;exitDy=0;exitPerimeter=0;" edge="1" parent="1" source="-9MLxV5tjwEzQLKtOrl2-27">
          <mxGeometry width="50" height="50" relative="1" as="geometry">
            <mxPoint x="730" y="270" as="sourcePoint" />
            <mxPoint x="420" y="270" as="targetPoint" />
          </mxGeometry>
        </mxCell>
        <mxCell id="-9MLxV5tjwEzQLKtOrl2-35" value="fetch input" style="edgeLabel;html=1;align=center;verticalAlign=middle;resizable=0;points=[];" vertex="1" connectable="0" parent="-9MLxV5tjwEzQLKtOrl2-34">
          <mxGeometry x="0.0138" relative="1" as="geometry">
            <mxPoint x="-73" as="offset" />
          </mxGeometry>
        </mxCell>
        <mxCell id="-9MLxV5tjwEzQLKtOrl2-36" value="" style="endArrow=classic;html=1;rounded=0;entryX=0;entryY=1;entryDx=0;entryDy=0;exitX=1;exitY=0.765;exitDx=0;exitDy=0;exitPerimeter=0;dashed=1;" edge="1" parent="1" source="-9MLxV5tjwEzQLKtOrl2-17" target="-9MLxV5tjwEzQLKtOrl2-26">
          <mxGeometry width="50" height="50" relative="1" as="geometry">
            <mxPoint x="440" y="250" as="sourcePoint" />
            <mxPoint x="560" y="240" as="targetPoint" />
          </mxGeometry>
        </mxCell>
        <mxCell id="-9MLxV5tjwEzQLKtOrl2-41" value="" style="endArrow=none;html=1;rounded=0;entryX=0.5;entryY=1;entryDx=0;entryDy=0;" edge="1" parent="1" target="-9MLxV5tjwEzQLKtOrl2-37">
          <mxGeometry width="50" height="50" relative="1" as="geometry">
            <mxPoint x="575" y="400" as="sourcePoint" />
            <mxPoint x="575" y="100" as="targetPoint" />
          </mxGeometry>
        </mxCell>
        <mxCell id="-9MLxV5tjwEzQLKtOrl2-37" value="" style="rounded=1;whiteSpace=wrap;html=1;" vertex="1" parent="1">
          <mxGeometry x="570" y="260" width="10" height="110" as="geometry" />
        </mxCell>
        <mxCell id="-9MLxV5tjwEzQLKtOrl2-38" value="" style="endArrow=classic;html=1;rounded=0;exitX=1;exitY=0.765;exitDx=0;exitDy=0;exitPerimeter=0;dashed=1;entryX=-0.135;entryY=0.949;entryDx=0;entryDy=0;entryPerimeter=0;" edge="1" parent="1" target="-9MLxV5tjwEzQLKtOrl2-27">
          <mxGeometry width="50" height="50" relative="1" as="geometry">
            <mxPoint x="420" y="286" as="sourcePoint" />
            <mxPoint x="730" y="286" as="targetPoint" />
          </mxGeometry>
        </mxCell>
        <mxCell id="-9MLxV5tjwEzQLKtOrl2-42" value="" style="endArrow=classic;html=1;rounded=0;exitX=1;exitY=1;exitDx=0;exitDy=0;entryX=1;entryY=0;entryDx=0;entryDy=0;fontSize=9;" edge="1" parent="1" source="-9MLxV5tjwEzQLKtOrl2-26" target="-9MLxV5tjwEzQLKtOrl2-37">
          <mxGeometry width="50" height="50" relative="1" as="geometry">
            <mxPoint x="590" y="280" as="sourcePoint" />
            <mxPoint x="640" y="230" as="targetPoint" />
            <Array as="points">
              <mxPoint x="600" y="250" />
              <mxPoint x="600" y="260" />
            </Array>
          </mxGeometry>
        </mxCell>
        <mxCell id="-9MLxV5tjwEzQLKtOrl2-43" value="start execution&lt;br&gt;with input" style="edgeLabel;html=1;align=center;verticalAlign=middle;resizable=0;points=[];fontSize=9;" vertex="1" connectable="0" parent="-9MLxV5tjwEzQLKtOrl2-42">
          <mxGeometry x="-0.0428" y="1" relative="1" as="geometry">
            <mxPoint x="29" y="1" as="offset" />
          </mxGeometry>
        </mxCell>
        <mxCell id="-9MLxV5tjwEzQLKtOrl2-44" value="" style="endArrow=classic;html=1;rounded=0;exitX=1;exitY=1;exitDx=0;exitDy=0;entryX=1;entryY=0;entryDx=0;entryDy=0;fontSize=9;" edge="1" parent="1">
          <mxGeometry width="50" height="50" relative="1" as="geometry">
            <mxPoint x="747" y="290" as="sourcePoint" />
            <mxPoint x="747" y="300" as="targetPoint" />
            <Array as="points">
              <mxPoint x="767" y="290" />
              <mxPoint x="767" y="300" />
            </Array>
          </mxGeometry>
        </mxCell>
        <mxCell id="-9MLxV5tjwEzQLKtOrl2-45" value="start execution&lt;br&gt;with input" style="edgeLabel;html=1;align=center;verticalAlign=middle;resizable=0;points=[];fontSize=9;" vertex="1" connectable="0" parent="-9MLxV5tjwEzQLKtOrl2-44">
          <mxGeometry x="-0.0428" y="1" relative="1" as="geometry">
            <mxPoint x="29" y="1" as="offset" />
          </mxGeometry>
        </mxCell>
        <mxCell id="-9MLxV5tjwEzQLKtOrl2-46" value="" style="rounded=1;whiteSpace=wrap;html=1;" vertex="1" parent="1">
          <mxGeometry x="737" y="300" width="10" height="70" as="geometry" />
        </mxCell>
        <mxCell id="-9MLxV5tjwEzQLKtOrl2-47" value="" style="endArrow=none;html=1;rounded=0;entryX=0.5;entryY=1;entryDx=0;entryDy=0;" edge="1" parent="1">
          <mxGeometry width="50" height="50" relative="1" as="geometry">
            <mxPoint x="741.83" y="400" as="sourcePoint" />
            <mxPoint x="741.83" y="370" as="targetPoint" />
          </mxGeometry>
        </mxCell>
      </root>
    </mxGraphModel>
  </diagram>
  <diagram name="Page-1" id="ZgUUKTHsLnRFDgrepDkm">
    <mxGraphModel dx="2074" dy="1198" grid="1" gridSize="10" guides="1" tooltips="1" connect="1" arrows="1" fold="1" page="1" pageScale="1" pageWidth="850" pageHeight="1100" math="0" shadow="0">
      <root>
        <mxCell id="0" />
        <mxCell id="1" parent="0" />
        <mxCell id="_1MORe2XJffC7ita17r6-3" value="generate SLURM submission&lt;br&gt;scripts" style="edgeStyle=orthogonalEdgeStyle;rounded=0;orthogonalLoop=1;jettySize=auto;html=1;" parent="1" source="_1MORe2XJffC7ita17r6-1" target="_1MORe2XJffC7ita17r6-2" edge="1">
          <mxGeometry relative="1" as="geometry" />
        </mxCell>
        <mxCell id="_1MORe2XJffC7ita17r6-6" value="srun&amp;nbsp;" style="edgeStyle=orthogonalEdgeStyle;rounded=0;orthogonalLoop=1;jettySize=auto;html=1;" parent="1" source="_1MORe2XJffC7ita17r6-1" target="_1MORe2XJffC7ita17r6-4" edge="1">
          <mxGeometry relative="1" as="geometry">
            <Array as="points">
              <mxPoint x="130" y="200" />
              <mxPoint x="300" y="200" />
            </Array>
          </mxGeometry>
        </mxCell>
        <mxCell id="_1MORe2XJffC7ita17r6-1" value="main script" style="rounded=0;whiteSpace=wrap;html=1;" parent="1" vertex="1">
          <mxGeometry x="70" y="75" width="120" height="60" as="geometry" />
        </mxCell>
        <mxCell id="_1MORe2XJffC7ita17r6-5" value="load pickled input" style="edgeStyle=orthogonalEdgeStyle;rounded=0;orthogonalLoop=1;jettySize=auto;html=1;" parent="1" source="_1MORe2XJffC7ita17r6-2" target="_1MORe2XJffC7ita17r6-4" edge="1">
          <mxGeometry relative="1" as="geometry">
            <Array as="points">
              <mxPoint x="510" y="210" />
              <mxPoint x="370" y="210" />
            </Array>
          </mxGeometry>
        </mxCell>
        <mxCell id="_1MORe2XJffC7ita17r6-2" value="SLURM submission scripts&lt;br&gt;&lt;br&gt;pickled input" style="shape=cylinder3;whiteSpace=wrap;html=1;boundedLbl=1;backgroundOutline=1;size=15;" parent="1" vertex="1">
          <mxGeometry x="430" y="30" width="140" height="150" as="geometry" />
        </mxCell>
        <mxCell id="_1MORe2XJffC7ita17r6-4" value="running job" style="rounded=0;whiteSpace=wrap;html=1;" parent="1" vertex="1">
          <mxGeometry x="270" y="260" width="120" height="60" as="geometry" />
        </mxCell>
      </root>
    </mxGraphModel>
  </diagram>
</mxfile>
